<?xml version="1.0" encoding="UTF-8"?>
<svg width="28px" height="22px" viewBox="0 0 28 22" version="1.1" xmlns="http://www.w3.org/2000/svg" xmlns:xlink="http://www.w3.org/1999/xlink">
    <!-- Generator: Sketch 41 (35326) - http://www.bohemiancoding.com/sketch -->
    <title>twitter-hover</title>
    <desc>Created with Sketch.</desc>
    <defs></defs>
    <g id="Page-1" stroke="none" stroke-width="1" fill="none" fill-rule="evenodd" fill-opacity="0.54">
        <g id="Home" transform="translate(-422.000000, -4603.000000)" fill="#000000">
            <g id="Home-Slides">
                <g id="Contact" transform="translate(216.000000, 4040.000000)">
                    <g id="contact_content" transform="translate(78.000000, 224.000000)">
                        <g id="follow-group" transform="translate(0.000000, 306.000000)">
                            <g id="socials" transform="translate(0.000000, 29.000000)">
                                <g id="socials-hover">
                                    <path d="M155.120568,7.11604892 C154.149585,7.5345762 153.094896,7.83591585 152.006725,7.95310349 C153.128378,7.28345983 153.982174,6.22877107 154.38396,4.97318922 C153.346012,5.5926096 152.174136,6.04461907 150.952036,6.27899435 C149.964312,5.22430559 148.55806,4.57140303 147.001139,4.57140303 C144.004483,4.57140303 141.593766,6.99886128 141.593766,9.97877554 C141.593766,10.3973028 141.643989,10.8158301 141.727695,11.2176163 C137.241082,10.983241 133.239962,8.84038133 130.578128,5.55912742 C130.109378,6.3626998 129.84152,7.28345983 129.84152,8.28792531 C129.84152,10.1629275 130.795762,11.8202956 132.252237,12.7912789 C131.364959,12.7577967 130.527905,12.5066803 129.808038,12.1048942 L129.808038,12.1718585 C129.808038,14.8002099 131.666299,16.9765517 134.143981,17.4787845 C133.691971,17.5959721 133.206479,17.6629365 132.720988,17.6629365 C132.369425,17.6629365 132.034603,17.6294543 131.699781,17.579231 C132.386166,19.7220907 134.378356,21.2790122 136.755591,21.3292355 C134.89733,22.7857105 132.570318,23.6395061 130.042413,23.6395061 C129.590404,23.6395061 129.171876,23.622765 128.736608,23.5725417 C131.130584,25.1127222 133.97657,26 137.040189,26 C146.984398,26 152.425252,17.763383 152.425252,10.614937 C152.425252,10.3805617 152.425252,10.1461865 152.408511,9.91181118 C153.4632,9.14172097 154.38396,8.18747877 155.120568,7.11604892 Z" id="twitter-hover"></path>
                                </g>
                            </g>
                        </g>
                    </g>
                </g>
            </g>
        </g>
    </g>
</svg>