<?xml version="1.0" encoding="UTF-8"?>
<svg width="26px" height="27px" viewBox="0 0 26 27" version="1.1" xmlns="http://www.w3.org/2000/svg" xmlns:xlink="http://www.w3.org/1999/xlink">
    <!-- Generator: Sketch 41 (35326) - http://www.bohemiancoding.com/sketch -->
    <title>IG-hover</title>
    <desc>Created with Sketch.</desc>
    <defs></defs>
    <g id="Page-1" stroke="none" stroke-width="1" fill="none" fill-rule="evenodd" fill-opacity="0.54">
        <g id="Home" transform="translate(-294.000000, -4601.000000)" fill="#000000">
            <g id="Home-Slides">
                <g id="Contact" transform="translate(216.000000, 4040.000000)">
                    <g id="contact_content" transform="translate(78.000000, 224.000000)">
                        <g id="follow-group" transform="translate(0.000000, 306.000000)">
                            <g id="socials" transform="translate(0.000000, 29.000000)">
                                <g id="socials-hover">
                                    <path d="M22.8013665,24.1584799 C22.8013665,24.7276771 22.349357,25.1796865 21.7801599,25.1796865 L3.8839332,25.1796865 C3.31473609,25.1796865 2.86272663,24.7276771 2.86272663,24.1584799 L2.86272663,13.3102527 L5.22322051,13.3102527 C5.00558632,13.9966375 4.88839868,14.7499866 4.88839868,15.5033357 C4.88839868,19.7890551 8.47099224,23.254461 12.8738993,23.254461 C17.2935474,23.254461 20.876141,19.7890551 20.876141,15.5033357 C20.876141,14.7499866 20.7589533,13.9966375 20.5413191,13.3102527 L22.8013665,13.3102527 L22.8013665,24.1584799 Z M18.0468965,15.2354782 C18.0468965,17.9977583 15.7366259,20.2410646 12.8738993,20.2410646 C10.0279137,20.2410646 7.71764313,17.9977583 7.71764313,15.2354782 C7.71764313,12.4731982 10.0279137,10.2298919 12.8738993,10.2298919 C15.7366259,10.2298919 18.0468965,12.4731982 18.0468965,15.2354782 Z M22.8013665,9.20868534 C22.8013665,9.84484681 22.2823926,10.3638206 21.6462312,10.3638206 L18.7332813,10.3638206 C18.0971198,10.3638206 17.578146,9.84484681 17.578146,9.20868534 L17.578146,6.44640526 C17.578146,5.81024379 18.0971198,5.29126996 18.7332813,5.29126996 L21.6462312,5.29126996 C22.2823926,5.29126996 22.8013665,5.81024379 22.8013665,6.44640526 L22.8013665,9.20868534 Z M25.7143164,5.72653833 C25.7143164,3.91850046 24.2243592,2.42854333 22.4163214,2.42854333 L3.297995,2.42854333 C1.48995713,2.42854333 0,3.91850046 0,5.72653833 L0,24.8448647 C0,26.6529026 1.48995713,28.1428597 3.297995,28.1428597 L22.4163214,28.1428597 C24.2243592,28.1428597 25.7143164,26.6529026 25.7143164,24.8448647 L25.7143164,5.72653833 Z" id="IG-hover"></path>
                                </g>
                            </g>
                        </g>
                    </g>
                </g>
            </g>
        </g>
    </g>
</svg>