<?xml version="1.0" encoding="UTF-8"?>
<svg width="11px" height="13px" viewBox="0 0 11 13" version="1.1" xmlns="http://www.w3.org/2000/svg" xmlns:xlink="http://www.w3.org/1999/xlink">
    <!-- Generator: Sketch 41 (35326) - http://www.bohemiancoding.com/sketch -->
    <title>lock-hover</title>
    <desc>Created with Sketch.</desc>
    <defs></defs>
    <g id="Page-1" stroke="none" stroke-width="1" fill="none" fill-rule="evenodd" fill-opacity="0.54">
        <g id="Home" transform="translate(-36.000000, -757.000000)" fill="#000000">
            <g id="Sidebar-left">
                <g id="lock" transform="translate(36.000000, 756.000000)">
                    <path d="M2.85714626,7.14284897 L2.85714626,5.42856121 C2.85714626,4.16963114 3.8839332,3.1428442 5.14286327,3.1428442 C6.40179335,3.1428442 7.42858028,4.16963114 7.42858028,5.42856121 L7.42858028,7.14284897 L2.85714626,7.14284897 Z M10.2857265,7.99999285 C10.2857265,7.526778 9.90179752,7.14284897 9.42858267,7.14284897 L9.14286804,7.14284897 L9.14286804,5.42856121 C9.14286804,3.23213002 7.33929446,1.42855644 5.14286327,1.42855644 C2.94643208,1.42855644 1.14285851,3.23213002 1.14285851,5.42856121 L1.14285851,7.14284897 L0.857143879,7.14284897 C0.383929029,7.14284897 0,7.526778 0,7.99999285 L0,13.1428561 C0,13.616071 0.383929029,14 0.857143879,14 L9.42858267,14 C9.90179752,14 10.2857265,13.616071 10.2857265,13.1428561 L10.2857265,7.99999285 Z" id="lock-hover"></path>
                </g>
            </g>
        </g>
    </g>
</svg>